<mxfile host="app.diagrams.net" modified="2024-06-05T18:16:17.897Z" agent="Mozilla/5.0 (Windows NT 10.0; Win64; x64; rv:126.0) Gecko/20100101 Firefox/126.0" version="24.4.14" etag="tuaPskUvkTr7--zml3xT" type="github">
  <diagram name="Page-1" id="22-i9Dy-grXcTJsBQpwI">
    <mxGraphModel>
      <root>
        <mxCell id="0" />
        <mxCell id="1" parent="0" />
      </root>
    </mxGraphModel>
  </diagram>
</mxfile>
